<?xml version="1.0" standalone="no"?>
<!DOCTYPE svg PUBLIC "-//W3C//DTD SVG 20010904//EN"
 "http://www.w3.org/TR/2001/REC-SVG-20010904/DTD/svg10.dtd">
<svg version="1.0" xmlns="http://www.w3.org/2000/svg"
 width="256.000000pt" height="256.000000pt" viewBox="0 0 256.000000 256.000000"
 preserveAspectRatio="xMidYMid meet">
<metadata>
Created by potrace 1.11, written by Peter Selinger 2001-2013
</metadata>
<g transform="translate(0.000000,256.000000) scale(0.100000,-0.100000)"
fill="#000000" stroke="none">
<path d="M1885 2531 c-131 -63 -307 -195 -366 -274 -32 -44 -57 -65 -94 -82
-81 -36 -108 -39 -160 -15 -47 21 -74 20 -95 -5 -9 -11 -35 11 -138 115 -181
182 -273 245 -359 244 -33 0 -50 -7 -74 -30 -30 -28 -99 -128 -128 -186 -15
-29 -17 -32 -89 -111 -23 -25 -42 -54 -42 -63 0 -9 20 -36 44 -61 40 -40 42
-44 25 -54 -10 -5 -19 -13 -19 -18 0 -4 -29 -62 -65 -129 l-65 -121 0 -210 c0
-198 1 -211 19 -221 11 -5 29 -10 40 -10 19 0 20 -7 19 -619 0 -341 3 -628 6
-639 9 -27 20 -28 328 -27 162 0 264 -3 261 -9 -4 -5 0 -6 8 0 21 13 662 13
671 0 5 -7 8 -7 8 2 0 6 10 12 23 12 13 0 29 -6 36 -12 11 -10 13 -10 7 0 -10
16 35 16 53 -1 9 -8 12 -8 7 0 -4 8 10 11 49 11 33 0 55 -5 55 -12 0 -8 2 -8
8 0 9 15 164 15 174 0 5 -7 8 -7 8 2 0 10 17 13 68 12 37 -1 76 -2 87 -1 51 3
49 -27 50 652 l0 632 45 2 c25 1 48 3 53 4 4 0 7 97 7 215 l0 214 -86 139
c-47 76 -87 139 -88 140 -2 2 -14 4 -29 5 l-26 2 33 28 c18 15 36 36 39 47 9
35 -59 221 -138 376 -39 75 -44 80 -76 83 -22 1 -56 -8 -94 -27z"/>
<path d="M330 21 c0 -6 4 -13 10 -16 6 -3 7 1 4 9 -7 18 -14 21 -14 7z"/>
</g>
</svg>
